<?xml version="1.0" encoding="UTF-8" standalone="no"?> <svg width="48" height="48" viewBox="0 0 48 48" fill="none" xmlns="http://www.w3.org/2000/svg">
<path d="M24 48C37.2548 48 48 37.2548 48 24C48 10.7452 37.2548 0 24 0C10.7452 0 0 10.7452 0 24C0 37.2548 10.7452 48 24 48Z" fill="#9146ff"/>
<path fill-rule="evenodd" clip-rule="evenodd" d="M10.4529 16.2089L12.3312 11.2001H37.9951V28.7318L30.4825 36.2417H24.8493L21.0948 40.0001H17.3366V36.2417H10.4529V16.2089ZM35.4917 13.7029H14.8335V31.8603H20.4706V35.6135L24.224 31.8603H31.1088L35.4917 27.4771V13.7029Z" fill="#efefef"/>
<path fill-rule="evenodd" clip-rule="evenodd" d="M24.224 26.2265H21.7199V18.7144H24.224V26.2265ZM31.1087 26.2265H28.6051V18.7144H31.1087V26.2265Z" fill="#efefef"/>
</svg>
