<?xml version="1.0" encoding="utf-8"?>
<!-- Generator: Adobe Illustrator 18.0.0, SVG Export Plug-In . SVG Version: 6.00 Build 0)  -->
<!DOCTYPE svg PUBLIC "-//W3C//DTD SVG 1.1//EN" "http://www.w3.org/Graphics/SVG/1.1/DTD/svg11.dtd">
<svg version="1.1" id="Layer_1" xmlns="http://www.w3.org/2000/svg" xmlns:xlink="http://www.w3.org/1999/xlink" x="0px" y="0px"
	 viewBox="0 0 64 64" enable-background="new 0 0 64 64" xml:space="preserve">
<g>
	<g>
		<g>
			<path fill="#cacaca" d="M32,0c17.7,0,32,14.3,32,32S49.7,64,32,64S0,49.7,0,32S14.3,0,32,0z"/>
		</g>
	</g>
	<g>
		<g>
			<path fill="#f9222d" d="M15,19v15.9C15,45.5,32,52,32,52s17-6.5,17-17.1V18c-5.5,0-13.6-3.1-17-7C28,15,20.5,19,15,19z"/>
		</g>
	</g>
	<g>
		<g>
			<path fill="#f9222d" d="M32,11v41c0,0,17-6.5,17-17.1V18C43.5,18,35.4,14.9,32,11z"/>
		</g>
	</g>
	<g>
		<g>
			<polygon fill="#cacaca" points="29.1,40.2 21.6,32.8 24.4,29.9 28.9,34.5 40.5,22 43.5,24.7 			"/>
		</g>
	</g>
</g>
</svg>
