<?xml version="1.0" encoding="utf-8"?>
<!-- Generator: Adobe Illustrator 24.0.2, SVG Export Plug-In . SVG Version: 6.00 Build 0)  -->
<svg version="1.1" id="Layer_1" xmlns="http://www.w3.org/2000/svg" xmlns:xlink="http://www.w3.org/1999/xlink" x="0px" y="0px"
	 viewBox="0 0 512 512" style="enable-background:new 0 0 512 512;" xml:space="preserve">
<style type="text/css">
	.st0{fill:url(#SVGID_1_);}
	.st1{fill:#FFFFFF;}
</style>
<linearGradient id="SVGID_1_" gradientUnits="userSpaceOnUse" x1="40.7386" y1="470.924" x2="586.2218" y2="-74.5592">
	<stop  offset="0.0011" style="stop-color:#FBE18A"/>
	<stop  offset="0.2094" style="stop-color:#FCBB45"/>
	<stop  offset="0.3765" style="stop-color:#F75274"/>
	<stop  offset="0.5238" style="stop-color:#D53692"/>
	<stop  offset="0.7394" style="stop-color:#8F39CE"/>
	<stop  offset="1" style="stop-color:#5B4FE9"/>
</linearGradient>
<circle class="st0" cx="255.9759" cy="255.6866" r="252.4099"/>
<g>
	<circle class="st1" cx="345.3287" cy="167.778" r="19.6088"/>
	<path class="st1" d="M258.1521,173.3155c-45.419,0-82.3722,36.952-82.3722,82.371s36.9532,82.3709,82.3722,82.3709
		s82.3697-36.9519,82.3697-82.3709S303.5711,173.3155,258.1521,173.3155z M258.1521,308.451
		c-29.0947,0-52.7658-23.6693-52.7658-52.7646c0-29.0947,23.6711-52.7639,52.7658-52.7639s52.7627,23.6692,52.7627,52.7639
		C310.9148,284.7818,287.2469,308.451,258.1521,308.451z"/>
	<g>
		<path class="st1" d="M323.5443,422.9243h-133.537c-55.3983,0-100.4662-45.0678-100.4662-100.4662V188.9154
			c0-55.399,45.0678-100.4662,100.4662-100.4662h133.537c55.3983,0,100.4718,45.0672,100.4718,100.4662v133.5427
			C424.0161,377.8564,378.9427,422.9243,323.5443,422.9243z M190.0073,119.9159c-38.0489,0-68.9995,30.9506-68.9995,68.9995
			v133.5427c0,38.0489,30.9506,68.9995,68.9995,68.9995h133.537c38.0489,0,69.0052-30.9506,69.0052-68.9995V188.9154
			c0-38.0489-30.9563-68.9995-69.0052-68.9995H190.0073z"/>
	</g>
</g>
</svg>
