<?xml version="1.0" encoding="utf-8"?><!-- Uploaded to: SVG Repo, www.svgrepo.com, Generator: SVG Repo Mixer Tools -->
<svg width="800px" height="800px" viewBox="0 0 24 24" fill="none" xmlns="http://www.w3.org/2000/svg">
<path d="M 8.950238,9.0025614 15.0038,15.056111 m 0,-6.0535496 -6.053562,6.0535496 M 21.662717,12.02933 c 0,5.401108 -6.610489,9.314978 -8.909147,10.512614 -0.24856,0.129547 -0.3729,0.194319 -0.545305,0.227856 -0.13439,0.02615 -0.328103,0.02615 -0.462492,0 C 11.573368,22.73627 11.449027,22.67149 11.200468,22.541944 8.9017615,21.344308 2.2913208,17.430438 2.2913208,12.02933 V 7.449956 c 0,-0.9679885 0,-1.4519708 0.1583127,-1.8680079 C 2.5894828,5.2144243 2.8167457,4.8864787 3.111772,4.6264782 3.4457349,4.3321662 3.8989045,4.1622306 4.8052437,3.8223474 L 11.296841,1.3880046 c 0.251707,-0.094387 0.3775,-0.1415808 0.507046,-0.1602983 0.114775,-0.016587 0.231489,-0.016587 0.346263,0 0.129547,0.018718 0.25534,0.065911 0.507047,0.1602983 l 6.491596,2.4343428 c 0.90634,0.3398832 1.359509,0.5098188 1.693425,0.8041308 0.29505,0.2600005 0.5223,0.5879461 0.662138,0.9554699 0.158361,0.4160371 0.158361,0.9000194 0.158361,1.8680079 z" stroke="context-fill" stroke-width="2" stroke-linecap="round" stroke-linejoin="round"/>
</svg>