<?xml version="1.0" encoding="utf-8"?><!-- Uploaded to: SVG Repo, www.svgrepo.com, Generator: SVG Repo Mixer Tools -->
<svg width="800px" height="800px" viewBox="0 0 24 24" fill="none" xmlns="http://www.w3.org/2000/svg">
<path d="M 8.8565309,4.6803015 C 10.269277,2.1459483 10.975628,0.87876599 12.031753,0.87876599 c 1.056125,0 1.762475,1.26717111 3.175177,3.80152441 l 0.3655,0.6556695 c 0.401526,0.7201813 0.602177,1.080283 0.915256,1.3178748 0.312967,0.2375918 0.70267,0.3257825 1.4823,0.502175 l 0.709808,0.1605881 c 2.743314,0.6207256 4.115083,0.9310828 4.441434,1.9805264 0.326352,1.0493988 -0.608757,2.1429998 -2.479088,4.3299778 l -0.483838,0.565816 c -0.531464,0.621473 -0.797252,0.93221 -0.916818,1.31667 -0.119453,0.384461 -0.0793,0.799037 0.001,1.628299 l 0.07317,0.75487 c 0.282741,2.917977 0.424168,4.376966 -0.43019,5.025541 -0.85447,0.648576 -2.138795,0.05722 -4.707445,-1.125387 l -0.664525,-0.306052 c -0.729885,-0.336055 -1.094827,-0.504138 -1.481742,-0.504138 -0.386915,0 -0.751857,0.168083 -1.481742,0.504138 L 9.8854851,21.792911 C 7.316813,22.975516 6.0324878,23.566874 5.1780965,22.918298 4.3237051,22.269723 4.4650869,20.810734 4.7478503,17.892757 l 0.073145,-0.75487 c 0.08036,-0.829262 0.1205354,-1.243838 9.809e-4,-1.628299 C 4.7024331,15.125128 4.436701,14.814391 3.9052257,14.192918 L 3.4213649,13.627102 C 1.5510909,11.440124 0.61594818,10.346523 0.94229951,9.2971242 1.2686509,8.2476806 2.6403525,7.9373234 5.3837558,7.3165978 L 6.0935086,7.1560097 C 6.8730934,6.9796172 7.2628858,6.8914265 7.575864,6.6538347 7.8888423,6.4162429 8.089583,6.0561523 8.491042,5.3359599 Z" stroke="context-fill" stroke-width="2"/>
</svg>