<?xml version="1.0" encoding="utf-8"?><!-- Uploaded to: SVG Repo, www.svgrepo.com, Generator: SVG Repo Mixer Tools -->
<svg width="800px" height="800px" viewBox="0 0 24 24" fill="none" xmlns="http://www.w3.org/2000/svg">
<path d="m 8.3565473,12.029775 2.4132727,2.413273 4.826545,-4.8265572 m 6.033182,2.4132842 c 0,5.382927 -6.588235,9.283498 -8.879154,10.477224 -0.247722,0.12911 -0.371644,0.193666 -0.543469,0.227089 -0.133937,0.02606 -0.326999,0.02606 -0.460935,0 -0.171825,-0.03343 -0.295747,-0.09798 -0.543469,-0.227089 C 8.911552,21.313273 2.3233657,17.412702 2.3233657,12.029775 V 7.4657822 c 0,-0.9647178 0,-1.4470707 0.1577797,-1.8617071 C 2.620524,5.2377765 2.8470217,4.910947 3.1410549,4.6518218 3.4738934,4.3585006 3.9255374,4.1891371 4.8288253,3.850398 L 11.298568,1.4242506 c 0.25086,-0.09407 0.37623,-0.1411041 0.50534,-0.1597586 0.114388,-0.016531 0.230708,-0.016531 0.345098,0 0.12911,0.018655 0.254479,0.065689 0.505339,0.1597586 l 6.469743,2.4261474 c 0.903287,0.3387391 1.354931,0.5081026 1.687721,0.8014238 0.294058,0.2591252 0.520544,0.5859547 0.65991,0.9522533 0.157828,0.4146364 0.157828,0.8969893 0.157828,1.8617071 z" stroke="context-fill" stroke-width="2" stroke-linecap="round" stroke-linejoin="round"/>
</svg>